# xmcd
#
# Track frame offsets:
#	150
#	8001
#	22029
#	37396
#	52217
#	67268
#	81588
#	96272
#	110569
#	125625
#
# Disc length: 1852 seconds
#
# Revision: 0
# Processed by: cddbd v1.5.2PL0 Copyright (c) Steve Scherf et al.
# Submitted via: EasyCDDAExtractor 16.0.6.1
#
DISCID=99073a0a
DTITLE=Συλλογικός δίσκος - Λαϊκό τραγούδι 1954-1967, 1960-2
DYEAR=2008
DGENRE=Λαϊκή
TTITLE0=Γκρέϋ Καίτη - Τρελλέ Τσιγγάνε [Ιωάννα Γεωργακοπούλου-Χαρ. Βασιλειάδης]
TTITLE1=Λίντα Μαίρη-Χιώτης Μανώλης - Έρωτά μου κατεργάρη [Μανώλης Χιώτης-Ε. Ζο
TTITLE1=υλινού]
TTITLE2=Καζαντζίδης Στέλιος - Στον Καναδά, στην Βραζιλία [Στέλιος Καζαντζίδης-
TTITLE2=Κώστας Βίρβος]
TTITLE3=Γκρέϋ Καίτη - Άναψε το τσιγάρο [Γεράσιμος Κλουβάτος-Χαράλαμπος Βασιλει
TTITLE3=άδης]
TTITLE4=Μπιθικώτσης Γρηγόρης-Παπανικολάου Νότα - Εδώ παπάς, εκεί παπάς [Θεόδωρ
TTITLE4=ος Δερβενιώτης-Κώστας Βίρβος]
TTITLE5=Αγγελόπουλος Μανώλης-Λύδια Γ.-Ατταλίδης Στράτος - Αχ! Μουσταφά [Θεόδωρ
TTITLE5=ος Δερβενιώτης-Κώστας Βίρβος]
TTITLE6=Καζαντζίδης Στέλιος - Έχω αγιάτρευτη πληγή [Στέλιος Καζαντζίδης-Κώστας
TTITLE6=Ζήτης]
TTITLE7=Διονυσίου Στράτος - Δεν είμαι ένοχος [Χρήστος Κολοκοτρώνης]
TTITLE8=Καζαντζίδης Στέλιος-Μαρινέλλα - Βαρέθηκα τέτοια ζωή [Στέλιος Καζαντζίδ
TTITLE8=ης]
TTITLE9=Γκρέϋ Καίτη - Τώρα που θα πας φαντάρος [Γιώργος Μητσάκης]
EXTD=
EXTT0=
EXTT1=
EXTT2=
EXTT3=
EXTT4=
EXTT5=
EXTT6=
EXTT7=
EXTT8=
EXTT9=
PLAYORDER=
